<svg t="1590719230943" class="icon" viewBox="0 0 1024 1024" version="1.1" xmlns="http://www.w3.org/2000/svg" p-id="2547" width="128" height="128"><path d="M510.4 7.7C231.8 7.7 6 233.5 6 512.2s225.8 504.4 504.4 504.4 504.4-225.8 504.4-504.4S789.1 7.7 510.4 7.7z m-1.8 209.1c81.5 0 147.7 65 147.7 145.2s-66.1 145.2-147.7 145.2c-81.5 0-147.6-65-147.6-145.2s66.1-145.2 147.6-145.2z m258.5 538.5c0 40.9-85.4 42.4-190.7 42.4h-123c-105.3 0-190.7-0.1-190.7-42.4v-12.1c0-103.6 85.4-187.5 190.7-187.5h123c105.3 0 190.7 84 190.7 187.5v12.1z" p-id="2548" fill="#e6e6e6"></path></svg>
